<svg width="13" height="13" viewBox="0 0 13 13" fill="none" xmlns="http://www.w3.org/2000/svg">
<path d="M4.625 0.875C2.89911 0.875 1.5 2.27411 1.5 4C1.5 5.72589 2.89911 7.125 4.625 7.125C6.35089 7.125 7.75 5.72589 7.75 4C7.75 2.27411 6.35089 0.875 4.625 0.875ZM2.75 4C2.75 2.96447 3.58947 2.125 4.625 2.125C5.66053 2.125 6.5 2.96447 6.5 4C6.5 5.03553 5.66053 5.875 4.625 5.875C3.58947 5.875 2.75 5.03553 2.75 4Z" fill="#707070"/>
<path d="M9.56776 4.13642C9.39193 4.04677 9.19737 4.00004 9 4.00004V2.75004C9.39475 2.75004 9.78388 2.84348 10.1356 3.02278C10.1743 3.04253 10.2125 3.06326 10.25 3.08494C10.5534 3.26009 10.817 3.49731 11.0233 3.7816C11.2552 4.10108 11.4081 4.47092 11.4695 4.86085C11.531 5.25079 11.4992 5.64973 11.3768 6.02503C11.2545 6.40033 11.0449 6.74132 10.7655 7.02008C10.486 7.29884 10.1444 7.50746 9.7688 7.62885C9.43456 7.73688 9.08177 7.7731 8.73347 7.73575C8.69036 7.73113 8.64732 7.72538 8.60439 7.7185C8.21488 7.65608 7.84567 7.50236 7.52695 7.26993L7.5263 7.26946L8.26315 6.25973C8.42258 6.37607 8.60732 6.45298 8.8022 6.48421C8.99708 6.51545 9.19659 6.50009 9.38439 6.43939C9.57219 6.3787 9.74296 6.27439 9.8827 6.13501C10.0224 5.99564 10.1272 5.82515 10.1884 5.63751C10.2496 5.44986 10.2654 5.2504 10.2347 5.05543C10.204 4.86047 10.1276 4.67555 10.0116 4.51582C9.8957 4.35609 9.7436 4.22607 9.56776 4.13642Z" fill="#707070"/>
<path d="M11.4988 12.125C11.4988 11.7969 11.4342 11.4719 11.3086 11.1687C11.183 10.8656 10.999 10.5901 10.7669 10.3581C10.5349 10.126 10.2594 9.94197 9.95626 9.8164C9.65308 9.69082 9.32815 9.62619 9 9.62619V8.375C9.4263 8.375 9.84899 8.44769 10.25 8.58947C10.3122 8.61147 10.3739 8.63513 10.4351 8.66045C10.89 8.84891 11.3034 9.12513 11.6517 9.47335C11.9999 9.82157 12.2761 10.235 12.4645 10.6899C12.4899 10.7511 12.5135 10.8128 12.5355 10.875C12.6773 11.276 12.75 11.6987 12.75 12.125H11.4988Z" fill="#707070"/>
<path d="M9 12.125H7.75C7.75 10.3991 6.35089 9 4.625 9C2.89911 9 1.5 10.3991 1.5 12.125H0.25C0.25 9.70875 2.20875 7.75 4.625 7.75C7.04125 7.75 9 9.70875 9 12.125Z" fill="#707070"/>
</svg>
