<svg xmlns="http://www.w3.org/2000/svg" width="29.25" height="29.243" viewBox="0 0 29.25 29.243">
  <defs>
    <style>
      .cls-1 {
        fill: #3a385a;
      }
    </style>
  </defs>
  <g id="Icon_ionic-ios-finger-print" data-name="Icon ionic-ios-finger-print" transform="translate(-3.375 -3.375)">
    <path id="Path_3" data-name="Path 3" class="cls-1" d="M31.7,12.8a10.957,10.957,0,0,0-2.32-4.043.951.951,0,0,0-.682-.281h0a.951.951,0,0,0-.682.281.972.972,0,0,0,0,1.364A9.32,9.32,0,0,1,29.9,13.5a14.078,14.078,0,0,1,.8,4.437c0,.211-.007.534-.014.71a.925.925,0,0,0,.253.689.935.935,0,0,0,.668.309h.042a.966.966,0,0,0,.963-.921c.007-.218.014-.57.014-.795A15.987,15.987,0,0,0,31.7,12.8Z"/>
    <path id="Path_4" data-name="Path 4" class="cls-1" d="M10.055,7.777a.96.96,0,0,0,.563-.183A12.584,12.584,0,0,1,18,5.295,12.411,12.411,0,0,1,25.995,8.3a1,1,0,0,0,.619.225.959.959,0,0,0,.738-.345.974.974,0,0,0-.12-1.357A14.355,14.355,0,0,0,18,3.375,14.529,14.529,0,0,0,9.492,6.033a.963.963,0,0,0,.563,1.744Z"/>
    <path id="Path_5" data-name="Path 5" class="cls-1" d="M5.3,17.93A12.687,12.687,0,0,1,8.43,9.584a.962.962,0,0,0-.1-1.357A.958.958,0,0,0,7.7,7.988h0a.951.951,0,0,0-.724.33,14.631,14.631,0,0,0-3.6,9.612,20.569,20.569,0,0,0,1.083,6.342.958.958,0,0,0,.921.682.974.974,0,0,0,.281-.042.962.962,0,0,0,.57-.464.946.946,0,0,0,.07-.731A18.782,18.782,0,0,1,5.3,17.93Z"/>
    <path id="Path_6" data-name="Path 6" class="cls-1" d="M25.01,9.127a10.23,10.23,0,0,0-6.8-2.545A11.479,11.479,0,0,0,9.668,10.1,10.617,10.617,0,0,0,6.877,18.2,30.947,30.947,0,0,0,7.53,22.88a18.94,18.94,0,0,1,.359,5.913,1,1,0,0,0,.7,1.027.761.761,0,0,0,.253.035.974.974,0,0,0,.963-.907,20.679,20.679,0,0,0-.387-6.462A29.96,29.96,0,0,1,8.8,18.049,8.722,8.722,0,0,1,11.081,11.4a9.568,9.568,0,0,1,7.13-2.911,8.322,8.322,0,0,1,5.534,2.074,11.812,11.812,0,0,1,3.445,5.7,27.729,27.729,0,0,1,.64,10.16.972.972,0,0,0,.865,1.055c.028,0,.063.007.091.007a.957.957,0,0,0,.956-.872,29.466,29.466,0,0,0-.71-10.884A13.648,13.648,0,0,0,25.01,9.127Z"/>
    <path id="Path_7" data-name="Path 7" class="cls-1" d="M26.262,18.809a11.813,11.813,0,0,0-2.855-6.37A7.3,7.3,0,0,0,18,10.069a8.8,8.8,0,0,0-3.8.844.972.972,0,0,0-.52.64.963.963,0,0,0,.935,1.188,1.049,1.049,0,0,0,.415-.091A6.942,6.942,0,0,1,17.993,12a5.427,5.427,0,0,1,4.1,1.87,10.069,10.069,0,0,1,2.257,5.245,34.657,34.657,0,0,1,.5,5.14,38.081,38.081,0,0,1-.337,5.14.941.941,0,0,0,.176.717.96.96,0,0,0,.626.387,1.049,1.049,0,0,0,.148.014.955.955,0,0,0,.949-.816,38.141,38.141,0,0,0,.366-5.449A35.34,35.34,0,0,0,26.262,18.809Z"/>
    <path id="Path_8" data-name="Path 8" class="cls-1" d="M13.029,14.309a.962.962,0,0,0-.795-1.5.971.971,0,0,0-.795.415,7.494,7.494,0,0,0-1.012,5.611,38.963,38.963,0,0,1,.661,11.6,1,1,0,0,0,.2.752.922.922,0,0,0,.661.359c.028,0,.056.007.084.007a.962.962,0,0,0,.949-.83,40.349,40.349,0,0,0-.668-12.22A5.527,5.527,0,0,1,13.029,14.309Z"/>
    <path id="Path_9" data-name="Path 9" class="cls-1" d="M22.324,27.281h-.035a.961.961,0,0,0-.928,1,12.676,12.676,0,0,1-.183,2.44.972.972,0,0,0,.64,1.111,1.088,1.088,0,0,0,.3.049.958.958,0,0,0,.942-.78,14.9,14.9,0,0,0,.218-2.89A.947.947,0,0,0,22.324,27.281Z"/>
    <path id="Path_10" data-name="Path 10" class="cls-1" d="M20.714,14.477a4.1,4.1,0,0,0-2.848-1.132,4.224,4.224,0,0,0-3.347,1.441,4.876,4.876,0,0,0-.766,4.219,38.735,38.735,0,0,1,.57,12.347.96.96,0,0,0,.83,1.076.723.723,0,0,0,.12.007.964.964,0,0,0,.956-.844,40.735,40.735,0,0,0-.584-12.966A3.177,3.177,0,0,1,16,16a2.336,2.336,0,0,1,1.856-.738c1.758,0,2.468,1.941,2.693,2.77a32.785,32.785,0,0,1,.809,7.573.966.966,0,0,0,.963.949h.014a.96.96,0,0,0,.949-.97,34.758,34.758,0,0,0-.879-8.044A6.382,6.382,0,0,0,20.714,14.477Z"/>
    <path id="Path_11" data-name="Path 11" class="cls-1" d="M18.647,17.29a.967.967,0,0,0-.893-.6h0a1.056,1.056,0,0,0-.366.07.962.962,0,0,0-.52,1.259,20.932,20.932,0,0,1,.991,5.822,45.649,45.649,0,0,1-.141,7.706.965.965,0,0,0,.2.71.935.935,0,0,0,.647.352.532.532,0,0,0,.105.007.96.96,0,0,0,.956-.858,47.964,47.964,0,0,0,.141-8.142A21.757,21.757,0,0,0,18.647,17.29Z"/>
  </g>
</svg>
