<svg width="22" height="24" viewBox="0 0 22 24" fill="none" xmlns="http://www.w3.org/2000/svg">
<path d="M2.42884 9.57275V19.572C2.42785 19.9479 2.50102 20.3202 2.64417 20.6678C2.78732 21.0153 2.99763 21.3312 3.26306 21.5973C3.52849 21.8635 3.84382 22.0746 4.19099 22.2187C4.53815 22.3628 4.91033 22.4369 5.2862 22.4369H16.7141C17.4719 22.4369 18.1987 22.1359 18.7346 21.6C19.2704 21.0642 19.5715 20.3374 19.5715 19.5796V9.57275" stroke="#FD7E7E" stroke-width="1.5" stroke-miterlimit="10" stroke-linecap="round" stroke-linejoin="round"/>
<path d="M1 5.28613H21" stroke="#FD7E7E" stroke-width="1.5" stroke-miterlimit="10" stroke-linecap="round" stroke-linejoin="round"/>
<path d="M8.14319 5.28604V1H13.8579V5.28604" stroke="#FD7E7E" stroke-width="1.5" stroke-miterlimit="10" stroke-linecap="round" stroke-linejoin="round"/>
<path d="M10.9989 10.999V18.1424" stroke="#FD7E7E" stroke-width="1.5" stroke-miterlimit="10" stroke-linecap="round" stroke-linejoin="round"/>
<path d="M15.2853 10.999V18.1424" stroke="#FD7E7E" stroke-width="1.5" stroke-miterlimit="10" stroke-linecap="round" stroke-linejoin="round"/>
<path d="M6.71436 10.999V18.1424" stroke="#FD7E7E" stroke-width="1.5" stroke-miterlimit="10" stroke-linecap="round" stroke-linejoin="round"/>
</svg>
