<svg width="13" height="12" viewBox="0 0 13 12" fill="none" xmlns="http://www.w3.org/2000/svg">
<path d="M11.762 1.68001H9.671L8.635 0.125006C8.60928 0.0863067 8.57433 0.0546176 8.5333 0.0327957C8.49228 0.0109738 8.44647 -0.00029479 8.4 5.86203e-06H5.6C5.55387 3.62604e-05 5.50846 0.0114629 5.46782 0.0332702C5.42717 0.0550774 5.39254 0.0865896 5.367 0.125006L4.331 1.68001H1.12C0.823039 1.68027 0.538316 1.79836 0.328333 2.00834C0.118349 2.21832 0.000264789 2.50304 0 2.80001L0 10.081C0.000529389 10.3778 0.118731 10.6623 0.328686 10.872C0.53864 11.0818 0.823212 11.1997 1.12 11.2H11.762C12.059 11.1997 12.3437 11.0817 12.5537 10.8717C12.7637 10.6617 12.8817 10.377 12.882 10.08V2.80001C12.8817 2.50304 12.7637 2.21832 12.5537 2.00834C12.3437 1.79836 12.059 1.68027 11.762 1.68001ZM2.52 4.76101C2.40924 4.76101 2.30097 4.72816 2.20888 4.66663C2.11679 4.6051 2.04501 4.51763 2.00263 4.41531C1.96024 4.31298 1.94915 4.20038 1.97076 4.09175C1.99237 3.98313 2.0457 3.88334 2.12402 3.80503C2.20234 3.72671 2.30212 3.67337 2.41075 3.65177C2.51938 3.63016 2.63198 3.64125 2.7343 3.68363C2.83663 3.72602 2.92409 3.7978 2.98562 3.88989C3.04716 3.98198 3.08 4.09025 3.08 4.20101C3.07974 4.34945 3.02065 4.49173 2.91569 4.59669C2.81072 4.70166 2.66844 4.76074 2.52 4.76101ZM7 9.52101C6.39083 9.52101 5.79535 9.34037 5.28884 9.00193C4.78234 8.6635 4.38757 8.18247 4.15445 7.61967C3.92133 7.05687 3.86034 6.43759 3.97918 5.84013C4.09802 5.24267 4.39137 4.69386 4.82211 4.26312C5.25286 3.83237 5.80166 3.53903 6.39912 3.42019C6.99658 3.30134 7.61587 3.36234 8.17867 3.59546C8.74146 3.82857 9.22249 4.22335 9.56093 4.72985C9.89936 5.23635 10.08 5.83184 10.08 6.44101C10.0789 7.25755 9.7541 8.04034 9.17672 8.61773C8.59934 9.19511 7.81654 9.51995 7 9.52101Z" fill="white"/>
</svg>
