<svg width="24" height="24" viewBox="0 0 24 24" fill="none" xmlns="http://www.w3.org/2000/svg">
<path opacity="0.3" d="M12 24C18.6274 24 24 18.6274 24 12C24 5.37258 18.6274 0 12 0C5.37258 0 0 5.37258 0 12C0 18.6274 5.37258 24 12 24Z" fill="#FD7E7E"/>
<path d="M6.89539 10.334V16.4328C6.89478 16.662 6.93941 16.8891 7.02673 17.1011C7.11404 17.3131 7.24231 17.5057 7.4042 17.6681C7.56609 17.8304 7.75842 17.9592 7.97016 18.047C8.18191 18.1349 8.40891 18.1801 8.63816 18.1801H15.6083C16.0705 18.1801 16.5138 17.9965 16.8406 17.6697C17.1675 17.3429 17.3511 16.8996 17.3511 16.4374V10.334" stroke="#FD7E7E" stroke-miterlimit="10" stroke-linecap="round" stroke-linejoin="round"/>
<path d="M6.02393 7.71973H18.2224" stroke="#FD7E7E" stroke-miterlimit="10" stroke-linecap="round" stroke-linejoin="round"/>
<path d="M10.3807 7.71962V5.10547H13.8663V7.71962" stroke="#FD7E7E" stroke-miterlimit="10" stroke-linecap="round" stroke-linejoin="round"/>
<path d="M12.1226 11.2041V15.561" stroke="#FD7E7E" stroke-miterlimit="10" stroke-linecap="round" stroke-linejoin="round"/>
<path d="M14.7368 11.2041V15.561" stroke="#FD7E7E" stroke-miterlimit="10" stroke-linecap="round" stroke-linejoin="round"/>
<path d="M9.50928 11.2041V15.561" stroke="#FD7E7E" stroke-miterlimit="10" stroke-linecap="round" stroke-linejoin="round"/>
</svg>
