<svg width="24" height="24" viewBox="0 0 24 24" fill="none" xmlns="http://www.w3.org/2000/svg">
<path opacity="0.3" d="M12 24C18.6274 24 24 18.6274 24 12C24 5.37258 18.6274 0 12 0C5.37258 0 0 5.37258 0 12C0 18.6274 5.37258 24 12 24Z" fill="#7077EA"/>
<path d="M15.9649 5.98441C15.9244 5.94196 15.8757 5.90817 15.8218 5.88509C15.7678 5.862 15.7098 5.8501 15.6511 5.8501C15.5924 5.8501 15.5343 5.862 15.4804 5.88509C15.4265 5.90817 15.3777 5.94196 15.3372 5.98441L8.89324 12.4284C8.84938 12.4678 8.81461 12.5163 8.79134 12.5705C8.76807 12.6247 8.75686 12.6833 8.75847 12.7423V14.5358C8.75428 14.596 8.76299 14.6563 8.784 14.7128C8.80501 14.7694 8.83785 14.8208 8.88032 14.8636C8.92278 14.9064 8.9739 14.9396 9.03025 14.9611C9.08661 14.9826 9.14689 14.9918 9.20708 14.9881H11.0006C11.0596 14.9897 11.1182 14.9785 11.1724 14.9552C11.2266 14.932 11.275 14.8972 11.3145 14.8533L17.7585 8.40564C17.8009 8.36512 17.8347 8.31642 17.8578 8.26248C17.8809 8.20853 17.8928 8.15047 17.8928 8.09179C17.8928 8.03311 17.8809 7.97505 17.8578 7.9211C17.8347 7.86716 17.8009 7.81846 17.7585 7.77794L15.9649 5.98441ZM10.8206 14.0872H9.65478V12.9213L14.3052 8.27087L15.4711 9.43671L10.8206 14.0872ZM16.0988 8.80902L14.9329 7.64317L15.6502 6.92594L16.8169 8.09179L16.0988 8.80902Z" fill="#7077EA"/>
<path d="M6.01685 16.7422H17.9568H6.01685Z" fill="#7077EA"/>
<path d="M6.01685 16.7422H17.9568" stroke="#7077EA" stroke-linecap="round"/>
</svg>
