<svg width="26" height="23" viewBox="0 0 26 23" fill="none" xmlns="http://www.w3.org/2000/svg">
<path d="M20.9959 0.269966C20.9145 0.184645 20.8166 0.11673 20.7082 0.0703272C20.5998 0.0239248 20.483 0 20.3651 0C20.2472 0 20.1304 0.0239248 20.022 0.0703272C19.9136 0.11673 19.8157 0.184645 19.7343 0.269966L6.78149 13.2227C6.69334 13.302 6.62346 13.3994 6.57668 13.5084C6.52991 13.6173 6.50736 13.7351 6.5106 13.8536V17.4587C6.50219 17.5796 6.51968 17.7009 6.56192 17.8145C6.60416 17.9282 6.67016 18.0315 6.75552 18.1175C6.84088 18.2036 6.94363 18.2704 7.0569 18.3136C7.17017 18.3568 7.29135 18.3753 7.41234 18.3678H11.0174C11.1359 18.3711 11.2537 18.3485 11.3626 18.3018C11.4716 18.255 11.569 18.1851 11.6483 18.0969L24.601 5.13676C24.6864 5.05533 24.7543 4.95744 24.8007 4.84901C24.8471 4.74058 24.871 4.62386 24.871 4.50591C24.871 4.38797 24.8471 4.27125 24.8007 4.16282C24.7543 4.05439 24.6864 3.9565 24.601 3.87507L20.9959 0.269966ZM10.6556 16.5569H8.31222V14.2135L17.6599 4.86587L20.0033 7.20928L10.6556 16.5569ZM21.265 5.94758L18.9216 3.60418L20.3632 2.16251L22.7085 4.50591L21.265 5.94758Z" fill="#7077EA"/>
<path d="M1 21.8931H25" stroke="#7077EA" stroke-linecap="round"/>
</svg>
