<svg width="18" height="16" viewBox="0 0 18 16" fill="none" xmlns="http://www.w3.org/2000/svg">
<path d="M6.49996 0.5C4.19877 0.5 2.33329 2.36548 2.33329 4.66667C2.33329 6.96785 4.19877 8.83333 6.49996 8.83333C8.80115 8.83333 10.6666 6.96785 10.6666 4.66667C10.6666 2.36548 8.80115 0.5 6.49996 0.5ZM3.99996 4.66667C3.99996 3.28595 5.11925 2.16667 6.49996 2.16667C7.88067 2.16667 8.99996 3.28595 8.99996 4.66667C8.99996 6.04738 7.88067 7.16667 6.49996 7.16667C5.11925 7.16667 3.99996 6.04738 3.99996 4.66667Z" fill="white"/>
<path d="M13.0903 4.84857C12.8559 4.72903 12.5964 4.66672 12.3333 4.66672V3.00005C12.8596 3.00005 13.3785 3.12464 13.8474 3.36371C13.899 3.39004 13.9499 3.41768 14 3.44658C14.4045 3.68011 14.7559 3.99641 15.031 4.37546C15.3402 4.80143 15.5441 5.29456 15.626 5.81447C15.7079 6.33439 15.6656 6.86631 15.5024 7.36671C15.3392 7.86711 15.0599 8.32176 14.6872 8.69344C14.3146 9.06513 13.8592 9.34328 13.3584 9.50514C12.9127 9.64917 12.4423 9.69746 11.9779 9.64767C11.9204 9.64151 11.863 9.63384 11.8058 9.62467C11.2865 9.54143 10.7942 9.33648 10.3692 9.02658L10.3684 9.02594L11.3508 7.67964C11.5634 7.83476 11.8097 7.93731 12.0696 7.97895C12.3294 8.02059 12.5954 8.00011 12.8458 7.91919C13.0962 7.83826 13.3239 7.69919 13.5102 7.51335C13.6965 7.32752 13.8362 7.1002 13.9178 6.85001C13.9994 6.59981 14.0206 6.33386 13.9796 6.07391C13.9386 5.81396 13.8367 5.56741 13.6821 5.35443C13.5276 5.14145 13.3248 4.9681 13.0903 4.84857Z" fill="white"/>
<path d="M15.665 15.5C15.665 15.0625 15.5789 14.6292 15.4114 14.225C15.244 13.8208 14.9986 13.4535 14.6892 13.1441C14.3798 12.8347 14.0125 12.5893 13.6083 12.4219C13.2041 12.2544 12.7708 12.1682 12.3333 12.1682V10.5C12.9017 10.5 13.4653 10.5969 14 10.786C14.0829 10.8153 14.1652 10.8468 14.2467 10.8806C14.8533 11.1319 15.4045 11.5002 15.8688 11.9645C16.3331 12.4288 16.7014 12.98 16.9527 13.5866C16.9864 13.6681 17.018 13.7504 17.0473 13.8333C17.2364 14.368 17.3333 14.9316 17.3333 15.5H15.665Z" fill="white"/>
<path d="M12.3333 15.5H10.6666C10.6666 13.1988 8.80115 11.3333 6.49996 11.3333C4.19877 11.3333 2.33329 13.1988 2.33329 15.5H0.666626C0.666626 12.2783 3.2783 9.66667 6.49996 9.66667C9.72162 9.66667 12.3333 12.2783 12.3333 15.5Z" fill="white"/>
</svg>
