<svg width="64" height="64" viewBox="0 0 64 64" fill="none" xmlns="http://www.w3.org/2000/svg">
<path d="M59 24.2139C59 28.7759 57.2985 32.9539 53.645 37.3579C50.3759 41.2988 45.6788 45.2986 40.2385 49.9302C38.3796 51.5125 36.2731 53.3063 34.0875 55.2171C33.5149 55.7176 32.7811 55.9955 32.019 56H32C31.2312 56 30.4901 55.7217 29.9125 55.2163C27.731 53.3104 25.6278 51.5186 23.7722 49.9384L23.7627 49.9314C18.3233 45.2994 13.6241 41.2988 10.3558 37.3579C6.70151 32.9539 5 28.7759 5 24.2139C5 19.7811 6.52147 15.6908 9.28384 12.6971C12.0796 9.66749 15.9152 8 20.0853 8C23.2028 8 26.0567 8.98378 28.5702 10.9254C29.8387 11.9059 30.9877 13.1046 32 14.5045L32.019 14.4794C33.0271 13.0902 34.1699 11.8997 35.4306 10.9254C37.9433 8.98378 40.7984 8 43.9147 8C48.0856 8 51.9212 9.66749 54.7162 12.6971C57.4785 15.6908 59 19.7799 59 24.2139Z" fill="#7077EA"/>
<path d="M59 24.2139C59 28.7759 57.2973 32.9539 53.6412 37.3579C50.3698 41.2988 45.6694 45.2986 40.2253 49.9302C38.3651 51.5125 36.2572 53.3063 34.07 55.2171C33.497 55.7176 32.7627 55.9955 32 56V14.4794C33.0088 13.0902 34.1525 11.8997 35.4141 10.9254C37.9285 8.98378 40.7856 8 43.9041 8C48.078 8 51.9163 9.66749 54.7131 12.6971C57.4775 15.6908 59 19.7799 59 24.2139Z" fill="#5E64BF"/>
</svg>
