<svg width="64" height="64" viewBox="0 0 64 64" fill="none" xmlns="http://www.w3.org/2000/svg">
<path d="M23.2507 43.9998H20V38.6665H25.3333L25.8387 40.6865C26.2587 42.3692 24.9867 43.9998 23.2507 43.9998Z" fill="#989EFF"/>
<path d="M49.3334 47.9998C49.3334 47.9998 33.568 38.6665 25.3334 38.6665V19.9998C33.0987 19.9998 49.3334 10.6665 49.3334 10.6665V47.9998Z" fill="#989EFF"/>
<path d="M12 35.9998C15.6819 35.9998 18.6667 33.0151 18.6667 29.3332C18.6667 25.6513 15.6819 22.6665 12 22.6665C8.31814 22.6665 5.33337 25.6513 5.33337 29.3332C5.33337 33.0151 8.31814 35.9998 12 35.9998Z" fill="#5E64BF"/>
<path d="M53.3334 25.333H49.3334V33.333H53.3334C55.5427 33.333 57.3334 31.5423 57.3334 29.333C57.3334 27.1237 55.5427 25.333 53.3334 25.333Z" fill="#5E64BF"/>
<path d="M24.8507 54.9387C23.5867 55.6827 21.5693 56.5387 18.74 56.768C17.8853 56.8374 17.0853 56.3067 16.824 55.4907L10.9493 37.192C10.9493 37.192 22.6667 28.96 22.6667 38.6667C22.6667 46.056 24.6213 49.932 25.556 51.36C26.164 52.2894 26.22 53.5427 25.5013 54.3907C25.32 54.604 25.1027 54.7907 24.8507 54.9387Z" fill="#5E64BF"/>
<path d="M12 38.6667H25.3334V20H12C10.5267 20 9.33337 21.1933 9.33337 22.6667V36C9.33337 37.4733 10.5267 38.6667 12 38.6667Z" fill="#7077EA"/>
<path d="M50.6667 50.6667C49.1933 50.6667 48 49.4733 48 48V10.6667C48 9.19333 49.1933 8 50.6667 8C52.14 8 53.3333 9.19333 53.3333 10.6667V48C53.3333 49.4733 52.14 50.6667 50.6667 50.6667Z" fill="#7077EA"/>
<path d="M64 50.6668C64 58.0002 58 64.0002 50.6667 64.0002C43.3334 64.0002 37.3334 58.0002 37.3334 50.6668C37.3334 43.3335 43.3334 37.3335 50.6667 37.3335C58 37.3335 64 43.3335 64 50.6668Z" fill="#FF3D00"/>
<path d="M57.7333 46.4001L54.9333 43.6001L50.6666 47.8668L46.4 43.6001L43.6 46.4001L47.8666 50.6668L43.6 54.9334L46.4 57.7334L50.6666 53.4668L54.9333 57.7334L57.7333 54.9334L53.4666 50.6668L57.7333 46.4001Z" fill="white"/>
</svg>
