<svg width="64" height="40" viewBox="0 0 64 40" fill="none" xmlns="http://www.w3.org/2000/svg">
<g filter="url(#filter0_d_91:1860)">
<path d="M48.662 0.662378L48.0303 0.675253C46.1842 0.749878 44.4229 1.15 42.8018 1.8215C42.8018 1.8215 39.0567 2.40813 32.5533 10.5609L32.1159 11.0871C26.8463 4.13863 22.0643 2.14313 21.3039 1.85888C21.2074 1.82288 21.1122 1.7855 21.017 1.74825C19.3059 1.06513 17.4443 0.681753 15.494 0.662378C7.04166 0.578753 0.0621618 7.43338 0.000411809 15.8859C-0.0613382 24.4091 6.82929 31.3384 15.3384 31.3384L15.9702 31.3255C17.8163 31.2509 19.5775 30.8508 21.1987 30.1793C21.1987 30.1793 25.0158 29.581 31.6337 21.2044L31.6067 21.2404L31.7572 21.4244C37.9158 28.7396 42.802 30.1793 42.802 30.1793C44.607 30.9268 46.587 31.3384 48.6622 31.3384C57.1339 31.3384 64.0002 24.4709 64.0002 16.0004C64.0002 7.52988 57.1338 0.662378 48.662 0.662378V0.662378ZM23.1078 21.4218C20.9632 23.6706 18.5227 25.4061 15.2742 25.4061C10.0792 25.4061 5.86841 21.1954 5.86841 16.0004C5.86841 10.8066 10.0779 6.59588 15.2704 6.59463C18.1728 6.59338 20.477 8.15513 22.592 10.0413C25.8148 12.9141 28.2643 15.7354 28.2643 15.7354C28.2643 15.7354 24.8819 19.5589 23.1078 21.4218V21.4218ZM48.7303 25.4061C45.8279 25.4074 43.5237 23.8456 41.4087 21.9595C38.1859 19.0866 35.7364 16.2654 35.7364 16.2654C35.7364 16.2654 39.1187 12.4419 40.8928 10.5789C43.0374 8.33 45.4779 6.5945 48.7264 6.5945C53.9214 6.5945 58.1322 10.8053 58.1322 16.0003C58.1322 21.1941 53.9227 25.4049 48.7303 25.4061V25.4061Z" fill="#7077EA"/>
</g>
<defs>
<filter id="filter0_d_91:1860" x="-4" y="0.661621" width="72.0002" height="38.6768" filterUnits="userSpaceOnUse" color-interpolation-filters="sRGB">
<feFlood flood-opacity="0" result="BackgroundImageFix"/>
<feColorMatrix in="SourceAlpha" type="matrix" values="0 0 0 0 0 0 0 0 0 0 0 0 0 0 0 0 0 0 127 0" result="hardAlpha"/>
<feOffset dy="4"/>
<feGaussianBlur stdDeviation="2"/>
<feComposite in2="hardAlpha" operator="out"/>
<feColorMatrix type="matrix" values="0 0 0 0 0.425 0 0 0 0 0.425 0 0 0 0 0.425 0 0 0 0.25 0"/>
<feBlend mode="normal" in2="BackgroundImageFix" result="effect1_dropShadow_91:1860"/>
<feBlend mode="normal" in="SourceGraphic" in2="effect1_dropShadow_91:1860" result="shape"/>
</filter>
</defs>
</svg>
